<svg xmlns="http://www.w3.org/2000/svg" width="131" height="130" viewBox="0 0 131 130" fill="none"><g filter="url(#filter0_f_1175_23676)"><circle cx="65.75" cy="65" r="45" fill="url(#paint0_linear_1175_23676)"></circle></g><circle cx="65.75" cy="65" r="45" fill="black"></circle><path fill-rule="evenodd" clip-rule="evenodd" d="M49.0626 62.1874C49.0626 57.987 49.0626 55.8868 49.88 54.2825C50.5991 52.8713 51.7464 51.7239 53.1576 51.0049C54.762 50.1874 56.8622 50.1874 61.0626 50.1874H70.4376C74.638 50.1874 76.7382 50.1874 78.3425 51.0049C79.7537 51.7239 80.9011 52.8713 81.6201 54.2825C82.4376 55.8868 82.4376 57.987 82.4376 62.1874C82.4376 66.3878 82.4376 68.488 81.6201 70.0924C80.9011 71.5036 79.7537 72.6509 78.3425 73.37C76.775 74.1687 74.7342 74.187 70.7239 74.1874L71.7551 78.3125H75.3126C76.2445 78.3125 77.0001 79.068 77.0001 80C77.0001 80.932 76.2445 81.6875 75.3126 81.6875H56.1875C55.2556 81.6875 54.5 80.932 54.5 80C54.5 79.068 55.2556 78.3125 56.1875 78.3125H59.745L60.7763 74.1874C56.7659 74.187 54.7251 74.1687 53.1576 73.37C51.7464 72.6509 50.5991 71.5036 49.88 70.0924C49.0626 68.488 49.0626 66.3878 49.0626 62.1874ZM70.4376 53.5624H61.0626C58.9067 53.5624 57.4927 53.5651 56.4114 53.6534C55.3695 53.7385 54.9369 53.8861 54.6899 54.012C53.9137 54.4075 53.2826 55.0386 52.8872 55.8147C52.7613 56.0618 52.6137 56.4944 52.5285 57.5363C52.4402 58.6176 52.4376 60.0316 52.4376 62.1874C52.4376 64.3433 52.4402 65.7573 52.5285 66.8386C52.6137 67.8805 52.7613 68.3131 52.8872 68.5601C53.2826 69.3363 53.9137 69.9674 54.6899 70.3628C54.9369 70.4887 55.3695 70.6363 56.4114 70.7215C57.4927 70.8098 58.9067 70.8124 61.0626 70.8124H70.4376C72.5935 70.8124 74.0074 70.8098 75.0887 70.7215C76.1306 70.6363 76.5632 70.4887 76.8103 70.3628C77.5864 69.9674 78.2175 69.3363 78.613 68.5601C78.7389 68.3131 78.8865 67.8805 78.9716 66.8386C79.0599 65.7573 79.0626 64.3433 79.0626 62.1874C79.0626 60.0316 79.0599 58.6176 78.9716 57.5363C78.8865 56.4944 78.7389 56.0618 78.613 55.8147C78.2175 55.0386 77.5864 54.4075 76.8103 54.012C76.5632 53.8861 76.1306 53.7385 75.0887 53.6534C74.0074 53.5651 72.5934 53.5624 70.4376 53.5624ZM64.2551 74.1874L63.2239 78.3125H68.2763L67.245 74.1874H64.2551Z" fill="white"></path><defs><filter id="filter0_f_1175_23676" x="0.75" y="0" width="130" height="130" filterUnits="userSpaceOnUse" color-interpolation-filters="sRGB"><feGaussianBlur stdDeviation="10"></feGaussianBlur></filter><linearGradient id="paint0_linear_1175_23676" x1="65.75" y1="20" x2="65.75" y2="110" gradientUnits="userSpaceOnUse"><stop stop-color="#40FCA2"></stop><stop offset="1" stop-color="#A040FC"></stop></linearGradient></defs></svg>