<svg xmlns="http://www.w3.org/2000/svg" width="107" height="107" viewBox="0 0 107 107" fill="none"><g filter="url(#filter0_f_1310_16274)"><circle cx="53.6789" cy="53.5569" r="38.6789" fill="url(#paint0_linear_1310_16274)"></circle></g><circle cx="53.6789" cy="53.5569" r="38.6789" fill="black"></circle><path d="M41.8125 41.6906C44.8481 38.655 49.0451 36.7754 53.6789 36.7754C58.3127 36.7754 62.5097 38.655 65.5453 41.6906C66.0082 42.1535 66.0082 42.904 65.5453 43.3669C65.0824 43.8298 64.3319 43.8298 63.869 43.3669C61.2599 40.7577 57.6587 39.146 53.6789 39.146C49.6991 39.146 46.098 40.7577 43.4888 43.3669C41.273 45.5827 39.7765 48.514 39.3757 51.785L39.6169 51.5438C39.9214 51.2393 40.4152 51.2393 40.7197 51.5438C41.0243 51.8484 41.0243 52.3421 40.7197 52.6467L38.6341 54.7323C38.3295 55.0369 37.8358 55.0369 37.5312 54.7323L35.4456 52.6467C35.141 52.3421 35.141 51.8484 35.4456 51.5438C35.7501 51.2393 36.2439 51.2393 36.5484 51.5438L36.9717 51.9671C37.3478 47.9675 39.1282 44.3749 41.8125 41.6906Z" fill="white"></path><path d="M67.7409 55.1421L68.0327 54.8503C67.7249 58.3138 66.1924 61.4237 63.869 63.7471C61.2599 66.3563 57.6587 67.968 53.6789 67.968C49.6991 67.968 46.098 66.3563 43.4888 63.7471C43.0259 63.2842 42.2754 63.2842 41.8125 63.7471C41.3496 64.21 41.3496 64.9605 41.8125 65.4234C44.8481 68.459 49.0451 70.3387 53.6789 70.3387C58.3127 70.3387 62.5097 68.459 65.5453 65.4234C68.3179 62.6509 70.1261 58.9095 70.4187 54.7513L70.8094 55.1421C71.114 55.4466 71.6077 55.4466 71.9123 55.1421C72.2168 54.8375 72.2168 54.3438 71.9123 54.0392L69.8266 51.9536C69.5221 51.649 69.0283 51.649 68.7238 51.9536L66.6381 54.0392C66.3336 54.3438 66.3336 54.8375 66.6381 55.1421C66.9427 55.4466 67.4364 55.4466 67.7409 55.1421Z" fill="white"></path><path d="M54.8642 47.0759V47.8162C55.9422 48.0924 56.9245 48.7427 57.3485 49.8592C57.5809 50.4712 57.2732 51.1557 56.6612 51.3881C56.0493 51.6205 55.3647 51.3129 55.1323 50.7009C55.0363 50.4481 54.5873 50.0288 53.5938 50.0288C53.0692 50.0288 52.6334 50.1739 52.3608 50.3756C52.1212 50.5529 51.9856 50.781 51.9856 51.1257C51.9856 51.3372 52.031 51.4464 52.0683 51.5088C52.1093 51.5776 52.1852 51.6629 52.3414 51.7612C52.7032 51.9887 53.2353 52.1399 54.0163 52.3469L54.0871 52.3657C54.7582 52.5432 55.6453 52.7779 56.3528 53.2297C56.7434 53.4792 57.1209 53.8176 57.3963 54.2857C57.6751 54.7596 57.8103 55.3003 57.8103 55.8913C57.8103 57.1553 57.171 58.0982 56.3026 58.6782C55.8637 58.9712 55.3702 59.1722 54.8642 59.2964V60.0382C54.8642 60.6928 54.3336 61.2235 53.6789 61.2235C53.0243 61.2235 52.4936 60.6928 52.4936 60.0382V59.3683C51.3808 59.1718 50.3923 58.6389 49.7558 57.7119C49.3853 57.1722 49.5224 56.4343 50.0621 56.0638C50.6018 55.6933 51.3397 55.8304 51.7102 56.3701C51.9661 56.7428 52.526 57.0853 53.5217 57.0853C54.1121 57.0853 54.6422 56.9363 54.986 56.7067C55.2886 56.5047 55.4396 56.258 55.4396 55.8913C55.4396 55.6717 55.3928 55.5554 55.353 55.4878C55.3099 55.4145 55.2324 55.327 55.0769 55.2277C54.7174 54.9981 54.1865 54.8445 53.4089 54.6384L53.32 54.6149C52.6543 54.439 51.7781 54.2075 51.0793 53.7679C50.6895 53.5228 50.3103 53.1888 50.0328 52.724C49.7515 52.2529 49.6149 51.7143 49.6149 51.1257C49.6149 49.9724 50.1543 49.0593 50.9506 48.47C51.4107 48.1296 51.9425 47.9046 52.4936 47.7796V47.0759C52.4936 46.4213 53.0243 45.8906 53.6789 45.8906C54.3336 45.8906 54.8642 46.4213 54.8642 47.0759Z" fill="white"></path><path fill-rule="evenodd" clip-rule="evenodd" d="M45.3416 45.2197C47.474 43.0872 50.4233 41.7662 53.6789 41.7662C56.9345 41.7662 59.8839 43.0872 62.0163 45.2197C64.1487 47.3521 65.4697 50.3014 65.4697 53.557C65.4697 56.8126 64.1487 59.762 62.0163 61.8944C59.8839 64.0268 56.9345 65.3478 53.6789 65.3478C50.4233 65.3478 47.474 64.0268 45.3416 61.8944C43.2091 59.762 41.8881 56.8126 41.8881 53.557C41.8881 50.3014 43.2091 47.3521 45.3416 45.2197ZM53.6789 44.1369C51.0773 44.1369 48.7239 45.1899 47.0179 46.896C45.3118 48.602 44.2587 50.9554 44.2587 53.557C44.2587 56.1587 45.3118 58.5121 47.0179 60.2181C48.7239 61.9241 51.0773 62.9772 53.6789 62.9772C56.2806 62.9772 58.634 61.9241 60.34 60.2181C62.046 58.5121 63.0991 56.1587 63.0991 53.557C63.0991 50.9554 62.046 48.602 60.34 46.896C58.634 45.1899 56.2806 44.1369 53.6789 44.1369Z" fill="white"></path><path d="M39.3303 57.6121C39.3303 58.1289 38.9113 58.5478 38.3945 58.5478C37.8777 58.5478 37.4588 58.1289 37.4588 57.6121C37.4588 57.0952 37.8777 56.6763 38.3945 56.6763C38.9113 56.6763 39.3303 57.0952 39.3303 57.6121Z" fill="white"></path><path d="M67.0918 46.6946C67.6086 46.6946 68.0275 46.2757 68.0275 45.7589C68.0275 45.2421 67.6086 44.8231 67.0918 44.8231C66.5749 44.8231 66.156 45.2421 66.156 45.7589C66.156 46.2757 66.5749 46.6946 67.0918 46.6946Z" fill="white"></path><path d="M40.578 60.7313C40.578 61.2481 40.1591 61.6671 39.6422 61.6671C39.1254 61.6671 38.7065 61.2481 38.7065 60.7313C38.7065 60.2145 39.1254 59.7956 39.6422 59.7956C40.1591 59.7956 40.578 60.2145 40.578 60.7313Z" fill="white"></path><path d="M68.3395 49.8139C68.8563 49.8139 69.2752 49.3949 69.2752 48.8781C69.2752 48.3613 68.8563 47.9424 68.3395 47.9424C67.8226 47.9424 67.4037 48.3613 67.4037 48.8781C67.4037 49.3949 67.8226 49.8139 68.3395 49.8139Z" fill="white"></path><defs><filter id="filter0_f_1310_16274" x="0.934959" y="0.813011" width="105.488" height="105.488" filterUnits="userSpaceOnUse" color-interpolation-filters="sRGB"><feGaussianBlur stdDeviation="7.03252"></feGaussianBlur></filter><linearGradient id="paint0_linear_1310_16274" x1="53.6789" y1="14.8781" x2="53.6789" y2="92.2358" gradientUnits="userSpaceOnUse"><stop stop-color="#40FCA2"></stop><stop offset="1" stop-color="#A040FC"></stop></linearGradient></defs></svg>